<mxfile host="app.diagrams.net" modified="2022-10-20T06:36:28.413Z" agent="5.0 (Windows)" etag="7BF-A5wmxHpKlN78--Pa" version="20.4.1" type="github">
  <diagram id="C5RBs43oDa-KdzZeNtuy" name="Page-1">
    <mxGraphModel dx="2591" dy="780" grid="1" gridSize="10" guides="1" tooltips="1" connect="1" arrows="1" fold="1" page="1" pageScale="1" pageWidth="1169" pageHeight="1654" math="0" shadow="0">
      <root>
        <mxCell id="WIyWlLk6GJQsqaUBKTNV-0" />
        <mxCell id="WIyWlLk6GJQsqaUBKTNV-1" parent="WIyWlLk6GJQsqaUBKTNV-0" />
        <mxCell id="WIyWlLk6GJQsqaUBKTNV-2" value="" style="rounded=0;html=1;jettySize=auto;orthogonalLoop=1;fontSize=11;endArrow=block;endFill=0;endSize=8;strokeWidth=1;shadow=0;labelBackgroundColor=none;edgeStyle=orthogonalEdgeStyle;" parent="WIyWlLk6GJQsqaUBKTNV-1" source="WIyWlLk6GJQsqaUBKTNV-3" target="WIyWlLk6GJQsqaUBKTNV-6" edge="1">
          <mxGeometry relative="1" as="geometry" />
        </mxCell>
        <mxCell id="WIyWlLk6GJQsqaUBKTNV-3" value="开始" style="rounded=1;whiteSpace=wrap;html=1;fontSize=12;glass=0;strokeWidth=1;shadow=0;" parent="WIyWlLk6GJQsqaUBKTNV-1" vertex="1">
          <mxGeometry x="-1123" y="86" width="120" height="40" as="geometry" />
        </mxCell>
        <mxCell id="WIyWlLk6GJQsqaUBKTNV-4" value="Yes" style="rounded=0;html=1;jettySize=auto;orthogonalLoop=1;fontSize=11;endArrow=block;endFill=0;endSize=8;strokeWidth=1;shadow=0;labelBackgroundColor=none;edgeStyle=orthogonalEdgeStyle;" parent="WIyWlLk6GJQsqaUBKTNV-1" source="WIyWlLk6GJQsqaUBKTNV-6" edge="1">
          <mxGeometry x="-0.5556" y="16" relative="1" as="geometry">
            <mxPoint as="offset" />
            <mxPoint x="-533" y="106" as="targetPoint" />
          </mxGeometry>
        </mxCell>
        <mxCell id="hF7ooZJOK3moPgRyZVrQ-2" style="edgeStyle=orthogonalEdgeStyle;rounded=0;orthogonalLoop=1;jettySize=auto;html=1;exitX=0.5;exitY=0;exitDx=0;exitDy=0;entryX=0.5;entryY=0;entryDx=0;entryDy=0;" parent="WIyWlLk6GJQsqaUBKTNV-1" source="WIyWlLk6GJQsqaUBKTNV-6" target="WIyWlLk6GJQsqaUBKTNV-3" edge="1">
          <mxGeometry relative="1" as="geometry" />
        </mxCell>
        <mxCell id="hF7ooZJOK3moPgRyZVrQ-3" value="no" style="edgeLabel;html=1;align=center;verticalAlign=middle;resizable=0;points=[];" parent="hF7ooZJOK3moPgRyZVrQ-2" vertex="1" connectable="0">
          <mxGeometry x="-0.1623" y="-1" relative="1" as="geometry">
            <mxPoint as="offset" />
          </mxGeometry>
        </mxCell>
        <mxCell id="WIyWlLk6GJQsqaUBKTNV-6" value="&lt;div&gt;check use or &lt;br&gt;&lt;/div&gt;&lt;div&gt;submit status&lt;/div&gt;" style="rhombus;whiteSpace=wrap;html=1;shadow=0;fontFamily=Helvetica;fontSize=12;align=center;strokeWidth=1;spacing=6;spacingTop=-4;" parent="WIyWlLk6GJQsqaUBKTNV-1" vertex="1">
          <mxGeometry x="-803" y="61" width="120" height="90" as="geometry" />
        </mxCell>
        <mxCell id="hF7ooZJOK3moPgRyZVrQ-6" value="" style="edgeStyle=orthogonalEdgeStyle;rounded=0;orthogonalLoop=1;jettySize=auto;html=1;" parent="WIyWlLk6GJQsqaUBKTNV-1" source="WIyWlLk6GJQsqaUBKTNV-11" target="hF7ooZJOK3moPgRyZVrQ-5" edge="1">
          <mxGeometry relative="1" as="geometry" />
        </mxCell>
        <mxCell id="WIyWlLk6GJQsqaUBKTNV-11" value="解析excel 文件成对象集合dtoItem" style="rounded=1;whiteSpace=wrap;html=1;fontSize=12;glass=0;strokeWidth=1;shadow=0;" parent="WIyWlLk6GJQsqaUBKTNV-1" vertex="1">
          <mxGeometry x="-623" y="86" width="120" height="40" as="geometry" />
        </mxCell>
        <mxCell id="hF7ooZJOK3moPgRyZVrQ-10" value="" style="edgeStyle=orthogonalEdgeStyle;rounded=0;orthogonalLoop=1;jettySize=auto;html=1;" parent="WIyWlLk6GJQsqaUBKTNV-1" source="hF7ooZJOK3moPgRyZVrQ-5" target="hF7ooZJOK3moPgRyZVrQ-9" edge="1">
          <mxGeometry relative="1" as="geometry" />
        </mxCell>
        <mxCell id="hF7ooZJOK3moPgRyZVrQ-5" value="循环集合dtoItem" style="whiteSpace=wrap;html=1;rounded=1;glass=0;strokeWidth=1;shadow=0;" parent="WIyWlLk6GJQsqaUBKTNV-1" vertex="1">
          <mxGeometry x="-433" y="84" width="120" height="44" as="geometry" />
        </mxCell>
        <mxCell id="hF7ooZJOK3moPgRyZVrQ-12" value="" style="edgeStyle=orthogonalEdgeStyle;rounded=0;orthogonalLoop=1;jettySize=auto;html=1;entryX=0.5;entryY=1;entryDx=0;entryDy=0;exitX=1;exitY=0.5;exitDx=0;exitDy=0;" parent="WIyWlLk6GJQsqaUBKTNV-1" source="hF7ooZJOK3moPgRyZVrQ-9" target="hF7ooZJOK3moPgRyZVrQ-18" edge="1">
          <mxGeometry relative="1" as="geometry">
            <mxPoint x="-293" y="250" as="targetPoint" />
          </mxGeometry>
        </mxCell>
        <mxCell id="hF7ooZJOK3moPgRyZVrQ-46" value="yes" style="edgeLabel;html=1;align=center;verticalAlign=middle;resizable=0;points=[];" parent="hF7ooZJOK3moPgRyZVrQ-12" vertex="1" connectable="0">
          <mxGeometry x="0.264" y="-3" relative="1" as="geometry">
            <mxPoint x="-3" y="27" as="offset" />
          </mxGeometry>
        </mxCell>
        <mxCell id="hF7ooZJOK3moPgRyZVrQ-36" value="" style="edgeStyle=orthogonalEdgeStyle;rounded=0;orthogonalLoop=1;jettySize=auto;html=1;" parent="WIyWlLk6GJQsqaUBKTNV-1" source="hF7ooZJOK3moPgRyZVrQ-9" target="hF7ooZJOK3moPgRyZVrQ-35" edge="1">
          <mxGeometry relative="1" as="geometry" />
        </mxCell>
        <mxCell id="pkTP9uWqBrhhQhl2yWkC-0" value="no" style="edgeLabel;html=1;align=center;verticalAlign=middle;resizable=0;points=[];" vertex="1" connectable="0" parent="hF7ooZJOK3moPgRyZVrQ-36">
          <mxGeometry x="-0.6908" y="4" relative="1" as="geometry">
            <mxPoint x="-19" y="-4" as="offset" />
          </mxGeometry>
        </mxCell>
        <mxCell id="hF7ooZJOK3moPgRyZVrQ-9" value="&lt;div&gt;根据itemCode&lt;/div&gt;&lt;div&gt;和lotNum对比&lt;/div&gt;&lt;div&gt;查找相同记录&lt;/div&gt;" style="rhombus;whiteSpace=wrap;html=1;" parent="WIyWlLk6GJQsqaUBKTNV-1" vertex="1">
          <mxGeometry x="-360" y="189.5" width="130" height="120" as="geometry" />
        </mxCell>
        <mxCell id="hF7ooZJOK3moPgRyZVrQ-21" value="" style="edgeStyle=orthogonalEdgeStyle;rounded=0;orthogonalLoop=1;jettySize=auto;html=1;entryX=0.5;entryY=0;entryDx=0;entryDy=0;exitX=0.5;exitY=0;exitDx=0;exitDy=0;" parent="WIyWlLk6GJQsqaUBKTNV-1" source="hF7ooZJOK3moPgRyZVrQ-18" target="hF7ooZJOK3moPgRyZVrQ-5" edge="1">
          <mxGeometry relative="1" as="geometry">
            <mxPoint x="-293" y="100" as="targetPoint" />
          </mxGeometry>
        </mxCell>
        <mxCell id="hF7ooZJOK3moPgRyZVrQ-18" value="添加错误日志到duplicateRows里面" style="rounded=1;whiteSpace=wrap;html=1;" parent="WIyWlLk6GJQsqaUBKTNV-1" vertex="1">
          <mxGeometry x="-283" y="88" width="110" height="40" as="geometry" />
        </mxCell>
        <mxCell id="hF7ooZJOK3moPgRyZVrQ-48" value="" style="edgeStyle=orthogonalEdgeStyle;rounded=0;orthogonalLoop=1;jettySize=auto;html=1;entryX=1;entryY=0.5;entryDx=0;entryDy=0;" parent="WIyWlLk6GJQsqaUBKTNV-1" source="hF7ooZJOK3moPgRyZVrQ-35" target="hF7ooZJOK3moPgRyZVrQ-49" edge="1">
          <mxGeometry relative="1" as="geometry">
            <mxPoint x="-753" y="250" as="targetPoint" />
          </mxGeometry>
        </mxCell>
        <mxCell id="hF7ooZJOK3moPgRyZVrQ-57" value="yes" style="edgeLabel;html=1;align=center;verticalAlign=middle;resizable=0;points=[];" parent="hF7ooZJOK3moPgRyZVrQ-48" vertex="1" connectable="0">
          <mxGeometry x="-0.6254" y="-1" relative="1" as="geometry">
            <mxPoint as="offset" />
          </mxGeometry>
        </mxCell>
        <mxCell id="hF7ooZJOK3moPgRyZVrQ-55" value="" style="edgeStyle=orthogonalEdgeStyle;rounded=0;orthogonalLoop=1;jettySize=auto;html=1;entryX=0;entryY=0.5;entryDx=0;entryDy=0;exitX=0.5;exitY=0;exitDx=0;exitDy=0;" parent="WIyWlLk6GJQsqaUBKTNV-1" source="hF7ooZJOK3moPgRyZVrQ-35" target="hF7ooZJOK3moPgRyZVrQ-5" edge="1">
          <mxGeometry relative="1" as="geometry" />
        </mxCell>
        <mxCell id="hF7ooZJOK3moPgRyZVrQ-56" value="no" style="edgeLabel;html=1;align=center;verticalAlign=middle;resizable=0;points=[];" parent="hF7ooZJOK3moPgRyZVrQ-55" vertex="1" connectable="0">
          <mxGeometry x="-0.1401" y="1" relative="1" as="geometry">
            <mxPoint y="1" as="offset" />
          </mxGeometry>
        </mxCell>
        <mxCell id="hF7ooZJOK3moPgRyZVrQ-35" value="&lt;div&gt;检查是否&lt;/div&gt;&lt;div&gt;最后一条记录&lt;br&gt;&lt;/div&gt;" style="rhombus;whiteSpace=wrap;html=1;" parent="WIyWlLk6GJQsqaUBKTNV-1" vertex="1">
          <mxGeometry x="-533" y="204.5" width="100" height="90" as="geometry" />
        </mxCell>
        <mxCell id="hF7ooZJOK3moPgRyZVrQ-50" value="" style="edgeStyle=orthogonalEdgeStyle;rounded=0;orthogonalLoop=1;jettySize=auto;html=1;" parent="WIyWlLk6GJQsqaUBKTNV-1" source="hF7ooZJOK3moPgRyZVrQ-49" target="WIyWlLk6GJQsqaUBKTNV-3" edge="1">
          <mxGeometry relative="1" as="geometry" />
        </mxCell>
        <mxCell id="hF7ooZJOK3moPgRyZVrQ-51" value="yes" style="edgeLabel;html=1;align=center;verticalAlign=middle;resizable=0;points=[];" parent="hF7ooZJOK3moPgRyZVrQ-50" vertex="1" connectable="0">
          <mxGeometry x="-0.2948" y="-1" relative="1" as="geometry">
            <mxPoint as="offset" />
          </mxGeometry>
        </mxCell>
        <mxCell id="hF7ooZJOK3moPgRyZVrQ-83" value="" style="edgeStyle=orthogonalEdgeStyle;rounded=0;orthogonalLoop=1;jettySize=auto;html=1;" parent="WIyWlLk6GJQsqaUBKTNV-1" source="hF7ooZJOK3moPgRyZVrQ-49" target="hF7ooZJOK3moPgRyZVrQ-82" edge="1">
          <mxGeometry relative="1" as="geometry" />
        </mxCell>
        <mxCell id="hF7ooZJOK3moPgRyZVrQ-213" value="no" style="edgeLabel;html=1;align=center;verticalAlign=middle;resizable=0;points=[];" parent="hF7ooZJOK3moPgRyZVrQ-83" vertex="1" connectable="0">
          <mxGeometry x="-0.1721" y="4" relative="1" as="geometry">
            <mxPoint as="offset" />
          </mxGeometry>
        </mxCell>
        <mxCell id="hF7ooZJOK3moPgRyZVrQ-49" value="&lt;div&gt;duplicateRows&lt;/div&gt;&lt;div&gt;是否&amp;gt;0&lt;br&gt;&lt;/div&gt;" style="rhombus;whiteSpace=wrap;html=1;" parent="WIyWlLk6GJQsqaUBKTNV-1" vertex="1">
          <mxGeometry x="-786.75" y="207" width="110" height="85" as="geometry" />
        </mxCell>
        <mxCell id="hF7ooZJOK3moPgRyZVrQ-62" value="" style="edgeStyle=orthogonalEdgeStyle;rounded=0;orthogonalLoop=1;jettySize=auto;html=1;entryX=0.5;entryY=0;entryDx=0;entryDy=0;" parent="WIyWlLk6GJQsqaUBKTNV-1" source="hF7ooZJOK3moPgRyZVrQ-58" target="hF7ooZJOK3moPgRyZVrQ-73" edge="1">
          <mxGeometry relative="1" as="geometry">
            <mxPoint x="-783" y="385" as="targetPoint" />
          </mxGeometry>
        </mxCell>
        <mxCell id="hF7ooZJOK3moPgRyZVrQ-63" value="no" style="edgeLabel;html=1;align=center;verticalAlign=middle;resizable=0;points=[];" parent="hF7ooZJOK3moPgRyZVrQ-62" vertex="1" connectable="0">
          <mxGeometry x="-0.7738" y="-2" relative="1" as="geometry">
            <mxPoint x="50" y="-2" as="offset" />
          </mxGeometry>
        </mxCell>
        <mxCell id="hF7ooZJOK3moPgRyZVrQ-65" value="" style="edgeStyle=orthogonalEdgeStyle;rounded=0;orthogonalLoop=1;jettySize=auto;html=1;" parent="WIyWlLk6GJQsqaUBKTNV-1" source="hF7ooZJOK3moPgRyZVrQ-58" target="hF7ooZJOK3moPgRyZVrQ-64" edge="1">
          <mxGeometry relative="1" as="geometry" />
        </mxCell>
        <mxCell id="hF7ooZJOK3moPgRyZVrQ-66" value="yes" style="edgeLabel;html=1;align=center;verticalAlign=middle;resizable=0;points=[];" parent="hF7ooZJOK3moPgRyZVrQ-65" vertex="1" connectable="0">
          <mxGeometry x="-0.2706" relative="1" as="geometry">
            <mxPoint as="offset" />
          </mxGeometry>
        </mxCell>
        <mxCell id="hF7ooZJOK3moPgRyZVrQ-58" value="&lt;div&gt;check &lt;br&gt;&lt;/div&gt;&lt;div&gt;quantity &amp;gt; 0&lt;br&gt;&lt;/div&gt;" style="rhombus;whiteSpace=wrap;html=1;" parent="WIyWlLk6GJQsqaUBKTNV-1" vertex="1">
          <mxGeometry x="-779.25" y="429.5" width="95" height="90" as="geometry" />
        </mxCell>
        <mxCell id="hF7ooZJOK3moPgRyZVrQ-71" value="" style="edgeStyle=orthogonalEdgeStyle;rounded=0;orthogonalLoop=1;jettySize=auto;html=1;" parent="WIyWlLk6GJQsqaUBKTNV-1" source="hF7ooZJOK3moPgRyZVrQ-64" target="hF7ooZJOK3moPgRyZVrQ-87" edge="1">
          <mxGeometry relative="1" as="geometry">
            <mxPoint x="-731.75" y="779.5" as="targetPoint" />
          </mxGeometry>
        </mxCell>
        <mxCell id="hF7ooZJOK3moPgRyZVrQ-72" value="yes" style="edgeLabel;html=1;align=center;verticalAlign=middle;resizable=0;points=[];" parent="hF7ooZJOK3moPgRyZVrQ-71" vertex="1" connectable="0">
          <mxGeometry x="-0.2819" y="1" relative="1" as="geometry">
            <mxPoint as="offset" />
          </mxGeometry>
        </mxCell>
        <mxCell id="hF7ooZJOK3moPgRyZVrQ-76" value="" style="edgeStyle=orthogonalEdgeStyle;rounded=0;orthogonalLoop=1;jettySize=auto;html=1;entryX=0.5;entryY=1;entryDx=0;entryDy=0;exitX=1;exitY=0.5;exitDx=0;exitDy=0;" parent="WIyWlLk6GJQsqaUBKTNV-1" source="hF7ooZJOK3moPgRyZVrQ-64" target="hF7ooZJOK3moPgRyZVrQ-73" edge="1">
          <mxGeometry relative="1" as="geometry">
            <mxPoint x="-830.5" y="562.5" as="targetPoint" />
            <Array as="points">
              <mxPoint x="-524" y="618" />
            </Array>
          </mxGeometry>
        </mxCell>
        <mxCell id="hF7ooZJOK3moPgRyZVrQ-77" value="no" style="edgeLabel;html=1;align=center;verticalAlign=middle;resizable=0;points=[];" parent="hF7ooZJOK3moPgRyZVrQ-76" vertex="1" connectable="0">
          <mxGeometry x="0.1635" y="-3" relative="1" as="geometry">
            <mxPoint x="-66" y="-4" as="offset" />
          </mxGeometry>
        </mxCell>
        <mxCell id="hF7ooZJOK3moPgRyZVrQ-64" value="&lt;div&gt;check item &lt;br&gt;&lt;/div&gt;master 信息是否正确" style="rhombus;whiteSpace=wrap;html=1;" parent="WIyWlLk6GJQsqaUBKTNV-1" vertex="1">
          <mxGeometry x="-803" y="569.5" width="142.5" height="95" as="geometry" />
        </mxCell>
        <mxCell id="hF7ooZJOK3moPgRyZVrQ-73" value="添加错误日志到errorMessage里面" style="rounded=1;whiteSpace=wrap;html=1;" parent="WIyWlLk6GJQsqaUBKTNV-1" vertex="1">
          <mxGeometry x="-579" y="500" width="110" height="40" as="geometry" />
        </mxCell>
        <mxCell id="hF7ooZJOK3moPgRyZVrQ-84" value="" style="edgeStyle=orthogonalEdgeStyle;rounded=0;orthogonalLoop=1;jettySize=auto;html=1;" parent="WIyWlLk6GJQsqaUBKTNV-1" source="hF7ooZJOK3moPgRyZVrQ-82" target="hF7ooZJOK3moPgRyZVrQ-58" edge="1">
          <mxGeometry relative="1" as="geometry" />
        </mxCell>
        <mxCell id="hF7ooZJOK3moPgRyZVrQ-82" value="循环集合dtoItem" style="rounded=1;whiteSpace=wrap;html=1;" parent="WIyWlLk6GJQsqaUBKTNV-1" vertex="1">
          <mxGeometry x="-791.75" y="340" width="120" height="60" as="geometry" />
        </mxCell>
        <mxCell id="hF7ooZJOK3moPgRyZVrQ-99" value="" style="edgeStyle=orthogonalEdgeStyle;rounded=0;orthogonalLoop=1;jettySize=auto;html=1;entryX=0;entryY=0.5;entryDx=0;entryDy=0;" parent="WIyWlLk6GJQsqaUBKTNV-1" source="hF7ooZJOK3moPgRyZVrQ-87" target="hF7ooZJOK3moPgRyZVrQ-101" edge="1">
          <mxGeometry relative="1" as="geometry">
            <mxPoint x="-530.5" y="780" as="targetPoint" />
          </mxGeometry>
        </mxCell>
        <mxCell id="hF7ooZJOK3moPgRyZVrQ-100" value="&lt;div&gt;否&lt;/div&gt;" style="edgeLabel;html=1;align=center;verticalAlign=middle;resizable=0;points=[];" parent="hF7ooZJOK3moPgRyZVrQ-99" vertex="1" connectable="0">
          <mxGeometry x="-0.2625" y="-1" relative="1" as="geometry">
            <mxPoint as="offset" />
          </mxGeometry>
        </mxCell>
        <mxCell id="hF7ooZJOK3moPgRyZVrQ-215" value="" style="edgeStyle=orthogonalEdgeStyle;rounded=0;orthogonalLoop=1;jettySize=auto;html=1;entryX=1;entryY=0.5;entryDx=0;entryDy=0;" parent="WIyWlLk6GJQsqaUBKTNV-1" source="hF7ooZJOK3moPgRyZVrQ-87" target="hF7ooZJOK3moPgRyZVrQ-134" edge="1">
          <mxGeometry relative="1" as="geometry">
            <mxPoint x="-893" y="420" as="targetPoint" />
            <Array as="points">
              <mxPoint x="-913" y="775" />
              <mxPoint x="-913" y="939" />
            </Array>
          </mxGeometry>
        </mxCell>
        <mxCell id="hF7ooZJOK3moPgRyZVrQ-216" value="是" style="edgeLabel;html=1;align=center;verticalAlign=middle;resizable=0;points=[];" parent="hF7ooZJOK3moPgRyZVrQ-215" vertex="1" connectable="0">
          <mxGeometry x="-0.4317" y="-1" relative="1" as="geometry">
            <mxPoint as="offset" />
          </mxGeometry>
        </mxCell>
        <mxCell id="hF7ooZJOK3moPgRyZVrQ-87" value="&lt;div&gt;chek SpecNo&lt;/div&gt;&lt;div&gt;是否为空&lt;br&gt;&lt;/div&gt;" style="rhombus;whiteSpace=wrap;html=1;" parent="WIyWlLk6GJQsqaUBKTNV-1" vertex="1">
          <mxGeometry x="-789.25" y="729.5" width="115" height="90" as="geometry" />
        </mxCell>
        <mxCell id="hF7ooZJOK3moPgRyZVrQ-105" value="" style="edgeStyle=orthogonalEdgeStyle;rounded=0;orthogonalLoop=1;jettySize=auto;html=1;entryX=0;entryY=0.5;entryDx=0;entryDy=0;exitX=1;exitY=0.5;exitDx=0;exitDy=0;" parent="WIyWlLk6GJQsqaUBKTNV-1" source="pkTP9uWqBrhhQhl2yWkC-1" target="hF7ooZJOK3moPgRyZVrQ-106" edge="1">
          <mxGeometry relative="1" as="geometry">
            <mxPoint x="-363" y="775" as="targetPoint" />
          </mxGeometry>
        </mxCell>
        <mxCell id="hF7ooZJOK3moPgRyZVrQ-112" value="" style="edgeStyle=orthogonalEdgeStyle;rounded=0;orthogonalLoop=1;jettySize=auto;html=1;" parent="WIyWlLk6GJQsqaUBKTNV-1" source="hF7ooZJOK3moPgRyZVrQ-101" target="hF7ooZJOK3moPgRyZVrQ-111" edge="1">
          <mxGeometry relative="1" as="geometry" />
        </mxCell>
        <mxCell id="pkTP9uWqBrhhQhl2yWkC-2" style="edgeStyle=orthogonalEdgeStyle;rounded=0;orthogonalLoop=1;jettySize=auto;html=1;exitX=1;exitY=0.5;exitDx=0;exitDy=0;entryX=0;entryY=0.5;entryDx=0;entryDy=0;" edge="1" parent="WIyWlLk6GJQsqaUBKTNV-1" source="hF7ooZJOK3moPgRyZVrQ-101" target="pkTP9uWqBrhhQhl2yWkC-1">
          <mxGeometry relative="1" as="geometry" />
        </mxCell>
        <mxCell id="hF7ooZJOK3moPgRyZVrQ-101" value="根据specNo查询记录" style="rounded=1;whiteSpace=wrap;html=1;" parent="WIyWlLk6GJQsqaUBKTNV-1" vertex="1">
          <mxGeometry x="-623" y="744.5" width="100" height="60" as="geometry" />
        </mxCell>
        <mxCell id="hF7ooZJOK3moPgRyZVrQ-109" value="" style="edgeStyle=orthogonalEdgeStyle;rounded=0;orthogonalLoop=1;jettySize=auto;html=1;entryX=0.5;entryY=1;entryDx=0;entryDy=0;exitX=0.5;exitY=0;exitDx=0;exitDy=0;" parent="WIyWlLk6GJQsqaUBKTNV-1" source="hF7ooZJOK3moPgRyZVrQ-106" target="hF7ooZJOK3moPgRyZVrQ-73" edge="1">
          <mxGeometry relative="1" as="geometry">
            <mxPoint x="-358" y="630" as="targetPoint" />
            <Array as="points">
              <mxPoint x="-258" y="570" />
              <mxPoint x="-524" y="570" />
            </Array>
          </mxGeometry>
        </mxCell>
        <mxCell id="hF7ooZJOK3moPgRyZVrQ-110" value="no" style="edgeLabel;html=1;align=center;verticalAlign=middle;resizable=0;points=[];" parent="hF7ooZJOK3moPgRyZVrQ-109" vertex="1" connectable="0">
          <mxGeometry x="-0.6577" y="-3" relative="1" as="geometry">
            <mxPoint y="1" as="offset" />
          </mxGeometry>
        </mxCell>
        <mxCell id="hF7ooZJOK3moPgRyZVrQ-115" value="" style="edgeStyle=orthogonalEdgeStyle;rounded=0;orthogonalLoop=1;jettySize=auto;html=1;" parent="WIyWlLk6GJQsqaUBKTNV-1" source="hF7ooZJOK3moPgRyZVrQ-106" target="hF7ooZJOK3moPgRyZVrQ-114" edge="1">
          <mxGeometry relative="1" as="geometry" />
        </mxCell>
        <mxCell id="pkTP9uWqBrhhQhl2yWkC-3" value="yes" style="edgeLabel;html=1;align=center;verticalAlign=middle;resizable=0;points=[];" vertex="1" connectable="0" parent="hF7ooZJOK3moPgRyZVrQ-115">
          <mxGeometry x="-0.4391" y="1" relative="1" as="geometry">
            <mxPoint as="offset" />
          </mxGeometry>
        </mxCell>
        <mxCell id="hF7ooZJOK3moPgRyZVrQ-106" value="&lt;div&gt;check specApplStatu是否&lt;/div&gt;&lt;div&gt;In-use&lt;br&gt;&lt;/div&gt;" style="rhombus;whiteSpace=wrap;html=1;" parent="WIyWlLk6GJQsqaUBKTNV-1" vertex="1">
          <mxGeometry x="-313" y="727" width="110" height="95" as="geometry" />
        </mxCell>
        <mxCell id="hF7ooZJOK3moPgRyZVrQ-113" value="" style="edgeStyle=orthogonalEdgeStyle;rounded=0;orthogonalLoop=1;jettySize=auto;html=1;" parent="WIyWlLk6GJQsqaUBKTNV-1" source="hF7ooZJOK3moPgRyZVrQ-111" target="hF7ooZJOK3moPgRyZVrQ-73" edge="1">
          <mxGeometry relative="1" as="geometry" />
        </mxCell>
        <mxCell id="hF7ooZJOK3moPgRyZVrQ-111" value="查询为空" style="whiteSpace=wrap;html=1;rounded=1;" parent="WIyWlLk6GJQsqaUBKTNV-1" vertex="1">
          <mxGeometry x="-569.5" y="650" width="91" height="40" as="geometry" />
        </mxCell>
        <mxCell id="hF7ooZJOK3moPgRyZVrQ-117" value="" style="edgeStyle=orthogonalEdgeStyle;rounded=0;orthogonalLoop=1;jettySize=auto;html=1;entryX=0.5;entryY=1;entryDx=0;entryDy=0;" parent="WIyWlLk6GJQsqaUBKTNV-1" source="hF7ooZJOK3moPgRyZVrQ-114" target="hF7ooZJOK3moPgRyZVrQ-73" edge="1">
          <mxGeometry relative="1" as="geometry">
            <mxPoint x="-303" y="570" as="targetPoint" />
            <Array as="points">
              <mxPoint x="-170" y="939" />
              <mxPoint x="-170" y="570" />
              <mxPoint x="-524" y="570" />
            </Array>
          </mxGeometry>
        </mxCell>
        <mxCell id="hF7ooZJOK3moPgRyZVrQ-118" value="yes" style="edgeLabel;html=1;align=center;verticalAlign=middle;resizable=0;points=[];" parent="hF7ooZJOK3moPgRyZVrQ-117" vertex="1" connectable="0">
          <mxGeometry x="-0.3093" y="1" relative="1" as="geometry">
            <mxPoint y="81" as="offset" />
          </mxGeometry>
        </mxCell>
        <mxCell id="hF7ooZJOK3moPgRyZVrQ-122" value="" style="edgeStyle=orthogonalEdgeStyle;rounded=0;orthogonalLoop=1;jettySize=auto;html=1;" parent="WIyWlLk6GJQsqaUBKTNV-1" source="hF7ooZJOK3moPgRyZVrQ-114" target="hF7ooZJOK3moPgRyZVrQ-121" edge="1">
          <mxGeometry relative="1" as="geometry" />
        </mxCell>
        <mxCell id="hF7ooZJOK3moPgRyZVrQ-130" value="no" style="edgeLabel;html=1;align=center;verticalAlign=middle;resizable=0;points=[];" parent="hF7ooZJOK3moPgRyZVrQ-122" vertex="1" connectable="0">
          <mxGeometry x="-0.2414" y="1" relative="1" as="geometry">
            <mxPoint as="offset" />
          </mxGeometry>
        </mxCell>
        <mxCell id="hF7ooZJOK3moPgRyZVrQ-114" value="&lt;div&gt;specType== one-off&lt;/div&gt;&lt;div&gt;&amp;amp;&amp;amp; OneOffUsedFlg==true&lt;/div&gt;" style="rhombus;whiteSpace=wrap;html=1;" parent="WIyWlLk6GJQsqaUBKTNV-1" vertex="1">
          <mxGeometry x="-423" y="880" width="175" height="117.5" as="geometry" />
        </mxCell>
        <mxCell id="hF7ooZJOK3moPgRyZVrQ-124" value="" style="edgeStyle=orthogonalEdgeStyle;rounded=0;orthogonalLoop=1;jettySize=auto;html=1;entryX=0.5;entryY=1;entryDx=0;entryDy=0;exitX=0.5;exitY=1;exitDx=0;exitDy=0;" parent="WIyWlLk6GJQsqaUBKTNV-1" source="hF7ooZJOK3moPgRyZVrQ-121" target="hF7ooZJOK3moPgRyZVrQ-73" edge="1">
          <mxGeometry relative="1" as="geometry">
            <mxPoint x="-613" y="1120" as="targetPoint" />
            <Array as="points">
              <mxPoint x="-566" y="1030" />
              <mxPoint x="-120" y="1030" />
              <mxPoint x="-120" y="570" />
              <mxPoint x="-524" y="570" />
            </Array>
          </mxGeometry>
        </mxCell>
        <mxCell id="hF7ooZJOK3moPgRyZVrQ-125" value="no" style="edgeLabel;html=1;align=center;verticalAlign=middle;resizable=0;points=[];" parent="hF7ooZJOK3moPgRyZVrQ-124" vertex="1" connectable="0">
          <mxGeometry x="-0.5608" y="-4" relative="1" as="geometry">
            <mxPoint x="1" as="offset" />
          </mxGeometry>
        </mxCell>
        <mxCell id="hF7ooZJOK3moPgRyZVrQ-127" value="" style="edgeStyle=orthogonalEdgeStyle;rounded=0;orthogonalLoop=1;jettySize=auto;html=1;" parent="WIyWlLk6GJQsqaUBKTNV-1" source="hF7ooZJOK3moPgRyZVrQ-121" target="hF7ooZJOK3moPgRyZVrQ-126" edge="1">
          <mxGeometry relative="1" as="geometry" />
        </mxCell>
        <mxCell id="hF7ooZJOK3moPgRyZVrQ-131" value="yes" style="edgeLabel;html=1;align=center;verticalAlign=middle;resizable=0;points=[];" parent="hF7ooZJOK3moPgRyZVrQ-127" vertex="1" connectable="0">
          <mxGeometry x="-0.2709" y="3" relative="1" as="geometry">
            <mxPoint x="1" as="offset" />
          </mxGeometry>
        </mxCell>
        <mxCell id="hF7ooZJOK3moPgRyZVrQ-121" value="&lt;div&gt;用specId和permit&lt;/div&gt;&lt;div&gt;ItemCode是否查到&lt;/div&gt;&lt;div&gt;specItem记录&lt;br&gt;&lt;/div&gt;" style="rhombus;whiteSpace=wrap;html=1;" parent="WIyWlLk6GJQsqaUBKTNV-1" vertex="1">
          <mxGeometry x="-653.5" y="880" width="175" height="117.5" as="geometry" />
        </mxCell>
        <mxCell id="hF7ooZJOK3moPgRyZVrQ-129" value="" style="edgeStyle=orthogonalEdgeStyle;rounded=0;orthogonalLoop=1;jettySize=auto;html=1;entryX=0.5;entryY=1;entryDx=0;entryDy=0;exitX=0.5;exitY=1;exitDx=0;exitDy=0;" parent="WIyWlLk6GJQsqaUBKTNV-1" source="hF7ooZJOK3moPgRyZVrQ-126" target="hF7ooZJOK3moPgRyZVrQ-73" edge="1">
          <mxGeometry relative="1" as="geometry">
            <mxPoint x="-815.5" y="1106.25" as="targetPoint" />
            <Array as="points">
              <mxPoint x="-785" y="1030" />
              <mxPoint x="-120" y="1030" />
              <mxPoint x="-120" y="570" />
              <mxPoint x="-524" y="570" />
            </Array>
          </mxGeometry>
        </mxCell>
        <mxCell id="hF7ooZJOK3moPgRyZVrQ-133" value="" style="edgeStyle=orthogonalEdgeStyle;rounded=0;orthogonalLoop=1;jettySize=auto;html=1;entryX=1;entryY=0.5;entryDx=0;entryDy=0;" parent="WIyWlLk6GJQsqaUBKTNV-1" source="hF7ooZJOK3moPgRyZVrQ-126" target="hF7ooZJOK3moPgRyZVrQ-134" edge="1">
          <mxGeometry relative="1" as="geometry">
            <mxPoint x="-903" y="938.8" as="targetPoint" />
          </mxGeometry>
        </mxCell>
        <mxCell id="hF7ooZJOK3moPgRyZVrQ-140" value="yes" style="edgeLabel;html=1;align=center;verticalAlign=middle;resizable=0;points=[];" parent="hF7ooZJOK3moPgRyZVrQ-133" vertex="1" connectable="0">
          <mxGeometry x="0.2271" y="-1" relative="1" as="geometry">
            <mxPoint as="offset" />
          </mxGeometry>
        </mxCell>
        <mxCell id="hF7ooZJOK3moPgRyZVrQ-126" value="&lt;div&gt;ImportQuantity&lt;/div&gt;&lt;div&gt;&amp;gt;&lt;br&gt;&lt;/div&gt;&lt;div&gt;specBalanceQuantity&lt;/div&gt;&lt;div&gt;&lt;br&gt;&lt;/div&gt;" style="rhombus;whiteSpace=wrap;html=1;" parent="WIyWlLk6GJQsqaUBKTNV-1" vertex="1">
          <mxGeometry x="-873" y="880" width="175" height="117.5" as="geometry" />
        </mxCell>
        <mxCell id="hF7ooZJOK3moPgRyZVrQ-136" value="" style="edgeStyle=orthogonalEdgeStyle;rounded=0;orthogonalLoop=1;jettySize=auto;html=1;entryX=0;entryY=0.5;entryDx=0;entryDy=0;exitX=0.5;exitY=0;exitDx=0;exitDy=0;" parent="WIyWlLk6GJQsqaUBKTNV-1" source="hF7ooZJOK3moPgRyZVrQ-134" target="hF7ooZJOK3moPgRyZVrQ-82" edge="1">
          <mxGeometry relative="1" as="geometry">
            <mxPoint x="-973" y="798.75" as="targetPoint" />
            <Array as="points">
              <mxPoint x="-1043" y="370" />
            </Array>
          </mxGeometry>
        </mxCell>
        <mxCell id="hF7ooZJOK3moPgRyZVrQ-137" value="否" style="edgeLabel;html=1;align=center;verticalAlign=middle;resizable=0;points=[];" parent="hF7ooZJOK3moPgRyZVrQ-136" vertex="1" connectable="0">
          <mxGeometry x="0.286" relative="1" as="geometry">
            <mxPoint as="offset" />
          </mxGeometry>
        </mxCell>
        <mxCell id="hF7ooZJOK3moPgRyZVrQ-139" value="" style="edgeStyle=orthogonalEdgeStyle;rounded=0;orthogonalLoop=1;jettySize=auto;html=1;entryX=0.5;entryY=0;entryDx=0;entryDy=0;" parent="WIyWlLk6GJQsqaUBKTNV-1" source="hF7ooZJOK3moPgRyZVrQ-134" target="hF7ooZJOK3moPgRyZVrQ-142" edge="1">
          <mxGeometry relative="1" as="geometry">
            <mxPoint x="-1043" y="1110" as="targetPoint" />
          </mxGeometry>
        </mxCell>
        <mxCell id="hF7ooZJOK3moPgRyZVrQ-141" value="yes" style="edgeLabel;html=1;align=center;verticalAlign=middle;resizable=0;points=[];" parent="hF7ooZJOK3moPgRyZVrQ-139" vertex="1" connectable="0">
          <mxGeometry x="-0.2988" y="2" relative="1" as="geometry">
            <mxPoint as="offset" />
          </mxGeometry>
        </mxCell>
        <mxCell id="hF7ooZJOK3moPgRyZVrQ-134" value="&lt;div&gt;检查是否&lt;/div&gt;&lt;div&gt;最后一条记录&lt;br&gt;&lt;/div&gt;" style="rhombus;whiteSpace=wrap;html=1;" parent="WIyWlLk6GJQsqaUBKTNV-1" vertex="1">
          <mxGeometry x="-1093" y="893.75" width="100" height="90" as="geometry" />
        </mxCell>
        <mxCell id="hF7ooZJOK3moPgRyZVrQ-144" value="" style="edgeStyle=orthogonalEdgeStyle;rounded=0;orthogonalLoop=1;jettySize=auto;html=1;entryX=0.5;entryY=1;entryDx=0;entryDy=0;" parent="WIyWlLk6GJQsqaUBKTNV-1" source="hF7ooZJOK3moPgRyZVrQ-142" target="WIyWlLk6GJQsqaUBKTNV-3" edge="1">
          <mxGeometry relative="1" as="geometry">
            <mxPoint x="-1193" y="510" as="targetPoint" />
            <Array as="points">
              <mxPoint x="-1133" y="1184" />
              <mxPoint x="-1133" y="250" />
              <mxPoint x="-1063" y="250" />
            </Array>
          </mxGeometry>
        </mxCell>
        <mxCell id="hF7ooZJOK3moPgRyZVrQ-145" value="yes" style="edgeLabel;html=1;align=center;verticalAlign=middle;resizable=0;points=[];" parent="hF7ooZJOK3moPgRyZVrQ-144" vertex="1" connectable="0">
          <mxGeometry x="-0.3675" y="-1" relative="1" as="geometry">
            <mxPoint y="1" as="offset" />
          </mxGeometry>
        </mxCell>
        <mxCell id="hF7ooZJOK3moPgRyZVrQ-147" value="" style="edgeStyle=orthogonalEdgeStyle;rounded=0;orthogonalLoop=1;jettySize=auto;html=1;entryX=0;entryY=0.5;entryDx=0;entryDy=0;" parent="WIyWlLk6GJQsqaUBKTNV-1" source="hF7ooZJOK3moPgRyZVrQ-142" target="hF7ooZJOK3moPgRyZVrQ-148" edge="1">
          <mxGeometry relative="1" as="geometry" />
        </mxCell>
        <mxCell id="hF7ooZJOK3moPgRyZVrQ-142" value="&lt;div&gt;check&lt;/div&gt;&lt;div&gt;errorMessage&amp;gt;0&lt;/div&gt;" style="rhombus;whiteSpace=wrap;html=1;" parent="WIyWlLk6GJQsqaUBKTNV-1" vertex="1">
          <mxGeometry x="-1100.5" y="1139" width="115" height="90" as="geometry" />
        </mxCell>
        <mxCell id="hF7ooZJOK3moPgRyZVrQ-150" value="" style="edgeStyle=orthogonalEdgeStyle;rounded=0;orthogonalLoop=1;jettySize=auto;html=1;entryX=0;entryY=0.5;entryDx=0;entryDy=0;" parent="WIyWlLk6GJQsqaUBKTNV-1" source="hF7ooZJOK3moPgRyZVrQ-148" target="hF7ooZJOK3moPgRyZVrQ-155" edge="1">
          <mxGeometry relative="1" as="geometry">
            <mxPoint x="-813" y="1324" as="targetPoint" />
          </mxGeometry>
        </mxCell>
        <mxCell id="hF7ooZJOK3moPgRyZVrQ-153" value="yes" style="edgeLabel;html=1;align=center;verticalAlign=middle;resizable=0;points=[];" parent="hF7ooZJOK3moPgRyZVrQ-150" vertex="1" connectable="0">
          <mxGeometry x="-0.3263" y="1" relative="1" as="geometry">
            <mxPoint as="offset" />
          </mxGeometry>
        </mxCell>
        <mxCell id="hF7ooZJOK3moPgRyZVrQ-152" value="" style="edgeStyle=orthogonalEdgeStyle;rounded=0;orthogonalLoop=1;jettySize=auto;html=1;exitX=0.5;exitY=1;exitDx=0;exitDy=0;" parent="WIyWlLk6GJQsqaUBKTNV-1" source="hF7ooZJOK3moPgRyZVrQ-148" target="hF7ooZJOK3moPgRyZVrQ-151" edge="1">
          <mxGeometry relative="1" as="geometry">
            <Array as="points">
              <mxPoint x="-813" y="1240" />
              <mxPoint x="-963" y="1240" />
            </Array>
          </mxGeometry>
        </mxCell>
        <mxCell id="hF7ooZJOK3moPgRyZVrQ-154" value="no" style="edgeLabel;html=1;align=center;verticalAlign=middle;resizable=0;points=[];" parent="hF7ooZJOK3moPgRyZVrQ-152" vertex="1" connectable="0">
          <mxGeometry x="-0.2119" y="2" relative="1" as="geometry">
            <mxPoint as="offset" />
          </mxGeometry>
        </mxCell>
        <mxCell id="hF7ooZJOK3moPgRyZVrQ-148" value="check status == in-use" style="rhombus;whiteSpace=wrap;html=1;" parent="WIyWlLk6GJQsqaUBKTNV-1" vertex="1">
          <mxGeometry x="-893" y="1139" width="160" height="90" as="geometry" />
        </mxCell>
        <mxCell id="hF7ooZJOK3moPgRyZVrQ-220" value="" style="edgeStyle=orthogonalEdgeStyle;rounded=0;orthogonalLoop=1;jettySize=auto;html=1;" parent="WIyWlLk6GJQsqaUBKTNV-1" source="hF7ooZJOK3moPgRyZVrQ-151" target="hF7ooZJOK3moPgRyZVrQ-219" edge="1">
          <mxGeometry relative="1" as="geometry" />
        </mxCell>
        <mxCell id="hF7ooZJOK3moPgRyZVrQ-151" value="&lt;div&gt;把上传文件记录的对象转换成&lt;/div&gt;&lt;div&gt;importDto对象&lt;br&gt;&lt;/div&gt;" style="whiteSpace=wrap;html=1;" parent="WIyWlLk6GJQsqaUBKTNV-1" vertex="1">
          <mxGeometry x="-1023" y="1260" width="120" height="60" as="geometry" />
        </mxCell>
        <mxCell id="hF7ooZJOK3moPgRyZVrQ-160" value="" style="edgeStyle=orthogonalEdgeStyle;rounded=0;orthogonalLoop=1;jettySize=auto;html=1;entryX=0;entryY=0.5;entryDx=0;entryDy=0;" parent="WIyWlLk6GJQsqaUBKTNV-1" source="hF7ooZJOK3moPgRyZVrQ-155" target="hF7ooZJOK3moPgRyZVrQ-159" edge="1">
          <mxGeometry relative="1" as="geometry">
            <Array as="points">
              <mxPoint x="-453" y="1184" />
              <mxPoint x="-453" y="1109" />
            </Array>
          </mxGeometry>
        </mxCell>
        <mxCell id="hF7ooZJOK3moPgRyZVrQ-161" value="no" style="edgeLabel;html=1;align=center;verticalAlign=middle;resizable=0;points=[];" parent="hF7ooZJOK3moPgRyZVrQ-160" vertex="1" connectable="0">
          <mxGeometry x="-0.2182" y="2" relative="1" as="geometry">
            <mxPoint x="-28" y="51" as="offset" />
          </mxGeometry>
        </mxCell>
        <mxCell id="hF7ooZJOK3moPgRyZVrQ-190" value="" style="edgeStyle=orthogonalEdgeStyle;rounded=0;orthogonalLoop=1;jettySize=auto;html=1;entryX=0.5;entryY=0;entryDx=0;entryDy=0;" parent="WIyWlLk6GJQsqaUBKTNV-1" source="hF7ooZJOK3moPgRyZVrQ-155" target="WIyWlLk6GJQsqaUBKTNV-3" edge="1">
          <mxGeometry relative="1" as="geometry">
            <mxPoint x="-580.5" y="1024" as="targetPoint" />
            <Array as="points">
              <mxPoint x="-580" y="1060" />
              <mxPoint x="-43" y="1060" />
              <mxPoint x="-43" y="10" />
              <mxPoint x="-1063" y="10" />
            </Array>
          </mxGeometry>
        </mxCell>
        <mxCell id="hF7ooZJOK3moPgRyZVrQ-191" value="yes" style="edgeLabel;html=1;align=center;verticalAlign=middle;resizable=0;points=[];" parent="hF7ooZJOK3moPgRyZVrQ-190" vertex="1" connectable="0">
          <mxGeometry x="-0.7004" relative="1" as="geometry">
            <mxPoint as="offset" />
          </mxGeometry>
        </mxCell>
        <mxCell id="hF7ooZJOK3moPgRyZVrQ-155" value="&lt;div&gt;check permit no,&lt;/div&gt;&lt;div&gt;receivedDate,&lt;/div&gt;&lt;div&gt;expiryDate是否为空&lt;br&gt; &lt;/div&gt;" style="rhombus;whiteSpace=wrap;html=1;" parent="WIyWlLk6GJQsqaUBKTNV-1" vertex="1">
          <mxGeometry x="-660.5" y="1129" width="160" height="110" as="geometry" />
        </mxCell>
        <mxCell id="hF7ooZJOK3moPgRyZVrQ-163" value="" style="edgeStyle=orthogonalEdgeStyle;rounded=0;orthogonalLoop=1;jettySize=auto;html=1;entryX=0.5;entryY=0;entryDx=0;entryDy=0;" parent="WIyWlLk6GJQsqaUBKTNV-1" source="hF7ooZJOK3moPgRyZVrQ-159" target="hF7ooZJOK3moPgRyZVrQ-164" edge="1">
          <mxGeometry relative="1" as="geometry">
            <mxPoint x="-813" y="1630" as="targetPoint" />
          </mxGeometry>
        </mxCell>
        <mxCell id="hF7ooZJOK3moPgRyZVrQ-159" value="循环集合" style="rounded=1;whiteSpace=wrap;html=1;" parent="WIyWlLk6GJQsqaUBKTNV-1" vertex="1">
          <mxGeometry x="-323" y="1079" width="120" height="60" as="geometry" />
        </mxCell>
        <mxCell id="hF7ooZJOK3moPgRyZVrQ-168" value="" style="edgeStyle=orthogonalEdgeStyle;rounded=0;orthogonalLoop=1;jettySize=auto;html=1;" parent="WIyWlLk6GJQsqaUBKTNV-1" source="hF7ooZJOK3moPgRyZVrQ-164" target="hF7ooZJOK3moPgRyZVrQ-167" edge="1">
          <mxGeometry relative="1" as="geometry" />
        </mxCell>
        <mxCell id="hF7ooZJOK3moPgRyZVrQ-169" value="yse" style="edgeLabel;html=1;align=center;verticalAlign=middle;resizable=0;points=[];" parent="hF7ooZJOK3moPgRyZVrQ-168" vertex="1" connectable="0">
          <mxGeometry x="-0.168" y="-3" relative="1" as="geometry">
            <mxPoint as="offset" />
          </mxGeometry>
        </mxCell>
        <mxCell id="hF7ooZJOK3moPgRyZVrQ-171" value="no" style="edgeStyle=orthogonalEdgeStyle;rounded=0;orthogonalLoop=1;jettySize=auto;html=1;" parent="WIyWlLk6GJQsqaUBKTNV-1" source="hF7ooZJOK3moPgRyZVrQ-164" target="hF7ooZJOK3moPgRyZVrQ-170" edge="1">
          <mxGeometry relative="1" as="geometry" />
        </mxCell>
        <mxCell id="hF7ooZJOK3moPgRyZVrQ-164" value="&lt;div&gt;check 当前上传的&lt;/div&gt;&lt;div&gt;permitNo是否被其他&lt;/div&gt;&lt;div&gt;permit Record 使用&lt;br&gt;&lt;/div&gt;" style="rhombus;whiteSpace=wrap;html=1;" parent="WIyWlLk6GJQsqaUBKTNV-1" vertex="1">
          <mxGeometry x="-433" y="1180" width="150" height="110" as="geometry" />
        </mxCell>
        <mxCell id="hF7ooZJOK3moPgRyZVrQ-167" value="&lt;div&gt;添加usedImportPermitNo&lt;/div&gt;&lt;div&gt;集合&lt;br&gt;&lt;/div&gt;" style="whiteSpace=wrap;html=1;" parent="WIyWlLk6GJQsqaUBKTNV-1" vertex="1">
          <mxGeometry x="-193" y="1205" width="120" height="60" as="geometry" />
        </mxCell>
        <mxCell id="hF7ooZJOK3moPgRyZVrQ-173" value="" style="edgeStyle=orthogonalEdgeStyle;rounded=0;orthogonalLoop=1;jettySize=auto;html=1;" parent="WIyWlLk6GJQsqaUBKTNV-1" source="hF7ooZJOK3moPgRyZVrQ-170" target="hF7ooZJOK3moPgRyZVrQ-172" edge="1">
          <mxGeometry relative="1" as="geometry" />
        </mxCell>
        <mxCell id="hF7ooZJOK3moPgRyZVrQ-174" value="no" style="edgeLabel;html=1;align=center;verticalAlign=middle;resizable=0;points=[];" parent="hF7ooZJOK3moPgRyZVrQ-173" vertex="1" connectable="0">
          <mxGeometry x="0.2" y="-1" relative="1" as="geometry">
            <mxPoint x="6" y="1" as="offset" />
          </mxGeometry>
        </mxCell>
        <mxCell id="hF7ooZJOK3moPgRyZVrQ-178" value="" style="edgeStyle=orthogonalEdgeStyle;rounded=0;orthogonalLoop=1;jettySize=auto;html=1;" parent="WIyWlLk6GJQsqaUBKTNV-1" source="hF7ooZJOK3moPgRyZVrQ-170" target="hF7ooZJOK3moPgRyZVrQ-177" edge="1">
          <mxGeometry relative="1" as="geometry" />
        </mxCell>
        <mxCell id="hF7ooZJOK3moPgRyZVrQ-170" value="&lt;div&gt;check 当前上传的&lt;/div&gt;&lt;div&gt;receivedDate格式&lt;/div&gt;&lt;div&gt;是否正确&lt;br&gt;&lt;/div&gt;" style="rhombus;whiteSpace=wrap;html=1;" parent="WIyWlLk6GJQsqaUBKTNV-1" vertex="1">
          <mxGeometry x="-433" y="1315" width="150" height="110" as="geometry" />
        </mxCell>
        <mxCell id="hF7ooZJOK3moPgRyZVrQ-172" value="&lt;div&gt;添加&lt;/div&gt;&lt;div&gt;invalidReceivedDate&lt;/div&gt;&lt;div&gt;集合&lt;br&gt;&lt;/div&gt;" style="rounded=1;whiteSpace=wrap;html=1;" parent="WIyWlLk6GJQsqaUBKTNV-1" vertex="1">
          <mxGeometry x="-203" y="1340" width="120" height="60" as="geometry" />
        </mxCell>
        <mxCell id="hF7ooZJOK3moPgRyZVrQ-182" value="" style="edgeStyle=orthogonalEdgeStyle;rounded=0;orthogonalLoop=1;jettySize=auto;html=1;" parent="WIyWlLk6GJQsqaUBKTNV-1" source="hF7ooZJOK3moPgRyZVrQ-177" target="hF7ooZJOK3moPgRyZVrQ-181" edge="1">
          <mxGeometry relative="1" as="geometry" />
        </mxCell>
        <mxCell id="hF7ooZJOK3moPgRyZVrQ-204" value="no" style="edgeLabel;html=1;align=center;verticalAlign=middle;resizable=0;points=[];" parent="hF7ooZJOK3moPgRyZVrQ-182" vertex="1" connectable="0">
          <mxGeometry x="-0.3053" y="-3" relative="1" as="geometry">
            <mxPoint as="offset" />
          </mxGeometry>
        </mxCell>
        <mxCell id="hF7ooZJOK3moPgRyZVrQ-188" value="" style="edgeStyle=orthogonalEdgeStyle;rounded=0;orthogonalLoop=1;jettySize=auto;html=1;" parent="WIyWlLk6GJQsqaUBKTNV-1" source="hF7ooZJOK3moPgRyZVrQ-177" target="hF7ooZJOK3moPgRyZVrQ-187" edge="1">
          <mxGeometry relative="1" as="geometry" />
        </mxCell>
        <mxCell id="hF7ooZJOK3moPgRyZVrQ-205" value="yes" style="edgeLabel;html=1;align=center;verticalAlign=middle;resizable=0;points=[];" parent="hF7ooZJOK3moPgRyZVrQ-188" vertex="1" connectable="0">
          <mxGeometry x="-0.2242" y="2" relative="1" as="geometry">
            <mxPoint as="offset" />
          </mxGeometry>
        </mxCell>
        <mxCell id="hF7ooZJOK3moPgRyZVrQ-177" value="&lt;div&gt;check 当前上传的&lt;/div&gt;&lt;div&gt;invalidExpiryDate格式&lt;/div&gt;&lt;div&gt;是否正确&lt;br&gt;&lt;/div&gt;" style="rhombus;whiteSpace=wrap;html=1;" parent="WIyWlLk6GJQsqaUBKTNV-1" vertex="1">
          <mxGeometry x="-433" y="1460" width="150" height="110" as="geometry" />
        </mxCell>
        <mxCell id="hF7ooZJOK3moPgRyZVrQ-181" value="&lt;div&gt;添加&lt;/div&gt;&lt;div&gt;invalidExpiryDate&lt;/div&gt;&lt;div&gt;集合&lt;br&gt;&lt;/div&gt;" style="rounded=1;whiteSpace=wrap;html=1;" parent="WIyWlLk6GJQsqaUBKTNV-1" vertex="1">
          <mxGeometry x="-193" y="1485" width="120" height="60" as="geometry" />
        </mxCell>
        <mxCell id="hF7ooZJOK3moPgRyZVrQ-207" value="" style="edgeStyle=orthogonalEdgeStyle;rounded=0;orthogonalLoop=1;jettySize=auto;html=1;entryX=0;entryY=0.5;entryDx=0;entryDy=0;" parent="WIyWlLk6GJQsqaUBKTNV-1" source="hF7ooZJOK3moPgRyZVrQ-185" target="hF7ooZJOK3moPgRyZVrQ-159" edge="1">
          <mxGeometry relative="1" as="geometry">
            <mxPoint x="-608" y="1335" as="targetPoint" />
            <Array as="points">
              <mxPoint x="-453" y="1335" />
              <mxPoint x="-453" y="1109" />
            </Array>
          </mxGeometry>
        </mxCell>
        <mxCell id="hF7ooZJOK3moPgRyZVrQ-208" value="no" style="edgeLabel;html=1;align=center;verticalAlign=middle;resizable=0;points=[];" parent="hF7ooZJOK3moPgRyZVrQ-207" vertex="1" connectable="0">
          <mxGeometry x="-0.5446" y="-1" relative="1" as="geometry">
            <mxPoint as="offset" />
          </mxGeometry>
        </mxCell>
        <mxCell id="hF7ooZJOK3moPgRyZVrQ-217" value="" style="edgeStyle=orthogonalEdgeStyle;rounded=0;orthogonalLoop=1;jettySize=auto;html=1;" parent="WIyWlLk6GJQsqaUBKTNV-1" source="hF7ooZJOK3moPgRyZVrQ-185" target="hF7ooZJOK3moPgRyZVrQ-151" edge="1">
          <mxGeometry relative="1" as="geometry" />
        </mxCell>
        <mxCell id="hF7ooZJOK3moPgRyZVrQ-218" value="yes" style="edgeLabel;html=1;align=center;verticalAlign=middle;resizable=0;points=[];" parent="hF7ooZJOK3moPgRyZVrQ-217" vertex="1" connectable="0">
          <mxGeometry x="-0.2049" y="1" relative="1" as="geometry">
            <mxPoint as="offset" />
          </mxGeometry>
        </mxCell>
        <mxCell id="hF7ooZJOK3moPgRyZVrQ-185" value="&lt;div&gt;检查是否&lt;/div&gt;&lt;div&gt;最后一条记录&lt;br&gt;&lt;/div&gt;" style="rhombus;whiteSpace=wrap;html=1;" parent="WIyWlLk6GJQsqaUBKTNV-1" vertex="1">
          <mxGeometry x="-771.75" y="1290" width="100" height="90" as="geometry" />
        </mxCell>
        <mxCell id="hF7ooZJOK3moPgRyZVrQ-194" value="" style="edgeStyle=orthogonalEdgeStyle;rounded=0;orthogonalLoop=1;jettySize=auto;html=1;" parent="WIyWlLk6GJQsqaUBKTNV-1" source="hF7ooZJOK3moPgRyZVrQ-187" target="hF7ooZJOK3moPgRyZVrQ-192" edge="1">
          <mxGeometry relative="1" as="geometry" />
        </mxCell>
        <mxCell id="hF7ooZJOK3moPgRyZVrQ-187" value="&lt;div&gt;合并usedImportPermitNo&lt;/div&gt;&lt;div&gt;invalidReceivedDate&lt;/div&gt;&lt;div&gt;invalidExpiryDate&lt;/div&gt;&lt;div&gt;这是三个集合到&lt;/div&gt;&lt;div&gt;usedImportPermitNo&lt;/div&gt;&lt;div&gt;&lt;br&gt;&lt;/div&gt;" style="rounded=1;whiteSpace=wrap;html=1;" parent="WIyWlLk6GJQsqaUBKTNV-1" vertex="1">
          <mxGeometry x="-650.5" y="1360" width="120" height="110" as="geometry" />
        </mxCell>
        <mxCell id="hF7ooZJOK3moPgRyZVrQ-195" value="" style="edgeStyle=orthogonalEdgeStyle;rounded=0;orthogonalLoop=1;jettySize=auto;html=1;" parent="WIyWlLk6GJQsqaUBKTNV-1" source="hF7ooZJOK3moPgRyZVrQ-192" target="hF7ooZJOK3moPgRyZVrQ-185" edge="1">
          <mxGeometry relative="1" as="geometry" />
        </mxCell>
        <mxCell id="hF7ooZJOK3moPgRyZVrQ-196" value="no" style="edgeLabel;html=1;align=center;verticalAlign=middle;resizable=0;points=[];" parent="hF7ooZJOK3moPgRyZVrQ-195" vertex="1" connectable="0">
          <mxGeometry x="-0.25" y="1" relative="1" as="geometry">
            <mxPoint as="offset" />
          </mxGeometry>
        </mxCell>
        <mxCell id="hF7ooZJOK3moPgRyZVrQ-212" value="" style="edgeStyle=orthogonalEdgeStyle;rounded=0;orthogonalLoop=1;jettySize=auto;html=1;entryX=0.5;entryY=0;entryDx=0;entryDy=0;exitX=1;exitY=0.5;exitDx=0;exitDy=0;" parent="WIyWlLk6GJQsqaUBKTNV-1" source="hF7ooZJOK3moPgRyZVrQ-192" target="WIyWlLk6GJQsqaUBKTNV-3" edge="1">
          <mxGeometry relative="1" as="geometry">
            <mxPoint x="-580.5" y="1915" as="targetPoint" />
            <Array as="points">
              <mxPoint x="-43" y="1585" />
              <mxPoint x="-43" y="10" />
              <mxPoint x="-1063" y="10" />
            </Array>
          </mxGeometry>
        </mxCell>
        <mxCell id="hF7ooZJOK3moPgRyZVrQ-223" value="yes" style="edgeLabel;html=1;align=center;verticalAlign=middle;resizable=0;points=[];" parent="hF7ooZJOK3moPgRyZVrQ-212" vertex="1" connectable="0">
          <mxGeometry x="-0.9342" y="-1" relative="1" as="geometry">
            <mxPoint as="offset" />
          </mxGeometry>
        </mxCell>
        <mxCell id="hF7ooZJOK3moPgRyZVrQ-192" value="&lt;div&gt;check 集合&lt;/div&gt;&lt;div&gt;usedImportPermitNo&lt;/div&gt;&lt;div&gt;&amp;gt;0&lt;br&gt;&lt;/div&gt;" style="rhombus;whiteSpace=wrap;html=1;" parent="WIyWlLk6GJQsqaUBKTNV-1" vertex="1">
          <mxGeometry x="-660.5" y="1530" width="140" height="110" as="geometry" />
        </mxCell>
        <mxCell id="hF7ooZJOK3moPgRyZVrQ-222" value="" style="edgeStyle=orthogonalEdgeStyle;rounded=0;orthogonalLoop=1;jettySize=auto;html=1;" parent="WIyWlLk6GJQsqaUBKTNV-1" source="hF7ooZJOK3moPgRyZVrQ-219" target="hF7ooZJOK3moPgRyZVrQ-221" edge="1">
          <mxGeometry relative="1" as="geometry" />
        </mxCell>
        <mxCell id="hF7ooZJOK3moPgRyZVrQ-219" value="&lt;div&gt;保存上传的execl 到db&lt;/div&gt;&lt;div&gt;获取 excelUploadId&lt;br&gt;&lt;/div&gt;" style="rounded=1;whiteSpace=wrap;html=1;" parent="WIyWlLk6GJQsqaUBKTNV-1" vertex="1">
          <mxGeometry x="-1023" y="1380" width="120" height="60" as="geometry" />
        </mxCell>
        <mxCell id="hF7ooZJOK3moPgRyZVrQ-221" value="end" style="rounded=1;whiteSpace=wrap;html=1;" parent="WIyWlLk6GJQsqaUBKTNV-1" vertex="1">
          <mxGeometry x="-1023" y="1510" width="120" height="60" as="geometry" />
        </mxCell>
        <mxCell id="pkTP9uWqBrhhQhl2yWkC-1" value="根据specId查询specAppl记录" style="rounded=1;whiteSpace=wrap;html=1;" vertex="1" parent="WIyWlLk6GJQsqaUBKTNV-1">
          <mxGeometry x="-469" y="744.5" width="100" height="60" as="geometry" />
        </mxCell>
      </root>
    </mxGraphModel>
  </diagram>
</mxfile>
